<svg xmlns="http://www.w3.org/2000/svg" width="408" height="232" viewBox="0 0 408 232" role="img" aria-label="587 commits in the last 30 days">
<style>
text{font-family:-apple-system, BlinkMacSystemFont, 'Segoe UI', 'Noto Sans', Helvetica, Arial, sans-serif;fill:#1f2328}
.s{fill:#59636e}.m{fill:#6e7781}.b{font-weight:600}
.grow{transform-box:fill-box;transform-origin:50% 100%;animation:grow .8s cubic-bezier(.2,.8,.2,1) both}
.fade{animation:fade .7s ease-out both}
@keyframes grow{from{transform:scaleY(0)}to{transform:scaleY(1)}}
@keyframes fade{from{opacity:0}to{opacity:1}}

@media (prefers-reduced-motion:reduce){*{animation:none!important}}
</style>
<rect x=".5" y=".5" width="407" height="231" rx="10" fill="#ffffff" stroke="#d1d9e0"/>
<text x="20" y="33" font-size="13" class="s">Commits, last 30 days</text>
<text x="20" y="76" font-size="38" class="b">587</text>
<text x="388" y="33" font-size="12" class="m" text-anchor="end">per week, last 12 weeks</text>
<line x1="50" x2="388" y1="150" y2="150" stroke="#e6e8eb"/>
<text x="42" y="154" font-size="11" class="m" text-anchor="end">200</text>
<line x1="50" x2="388" y1="108" y2="108" stroke="#e6e8eb"/>
<text x="42" y="112" font-size="11" class="m" text-anchor="end">400</text>
<path class="grow" style="animation-delay:0ms" d="M54.1 192V191Q54.1 187 58.1 187H70.1Q74.1 187 74.1 191V192Z" fill="#2a78d6"/>
<path class="grow" style="animation-delay:45ms" d="M82.3 192V180Q82.3 176 86.3 176H98.3Q102.3 176 102.3 180V192Z" fill="#2a78d6"/>
<path class="grow" style="animation-delay:90ms" d="M110.4 192V192Q110.4 190 112.4 190H128.4Q130.4 190 130.4 192V192Z" fill="#2a78d6"/>
<path class="grow" style="animation-delay:135ms" d="M138.6 192V186.3Q138.6 182.3 142.6 182.3H154.6Q158.6 182.3 158.6 186.3V192Z" fill="#2a78d6"/>
<path class="grow" style="animation-delay:180ms" d="M166.8 192V175.2Q166.8 171.2 170.8 171.2H182.8Q186.8 171.2 186.8 175.2V192Z" fill="#2a78d6"/>
<path class="grow" style="animation-delay:225ms" d="M194.9 192V177.9Q194.9 173.9 198.9 173.9H210.9Q214.9 173.9 214.9 177.9V192Z" fill="#2a78d6"/>
<path class="grow" style="animation-delay:270ms" d="M223.1 192V175.4Q223.1 171.4 227.1 171.4H239.1Q243.1 171.4 243.1 175.4V192Z" fill="#2a78d6"/>
<path class="grow" style="animation-delay:315ms" d="M251.3 192V176.3Q251.3 172.3 255.3 172.3H267.3Q271.3 172.3 271.3 176.3V192Z" fill="#2a78d6"/>
<path class="grow" style="animation-delay:360ms" d="M279.4 192V175.4Q279.4 171.4 283.4 171.4H295.4Q299.4 171.4 299.4 175.4V192Z" fill="#2a78d6"/>
<path class="grow" style="animation-delay:405ms" d="M307.6 192V169.1Q307.6 165.1 311.6 165.1H323.6Q327.6 165.1 327.6 169.1V192Z" fill="#2a78d6"/>
<path class="grow" style="animation-delay:450ms" d="M335.8 192V176.1Q335.8 172.1 339.8 172.1H351.8Q355.8 172.1 355.8 176.1V192Z" fill="#2a78d6"/>
<path class="grow" style="animation-delay:495ms" d="M363.9 192V148.8Q363.9 144.8 367.9 144.8H379.9Q383.9 144.8 383.9 148.8V192Z" fill="#2a78d6"/>
<text class="fade b" style="animation-delay:700ms" x="373.9" y="138.8" font-size="11" text-anchor="middle">225</text>
<line x1="50" x2="388" y1="192" y2="192" stroke="#c3c9d0"/>
<text x="50" y="210" font-size="11" class="m">15 Jul</text>
<text x="388" y="210" font-size="11" class="m" text-anchor="end">6 Oct</text>
</svg>
