<svg xmlns="http://www.w3.org/2000/svg" width="408" height="212" viewBox="0 0 408 212" role="img" aria-label="Field-sales CRM: 462 commits in 30 days">
<style>
text{font-family:-apple-system, BlinkMacSystemFont, 'Segoe UI', 'Noto Sans', Helvetica, Arial, sans-serif;fill:#1f2328}
.s{fill:#59636e}.m{fill:#6e7781}.b{font-weight:600}
.grow{transform-box:fill-box;transform-origin:50% 100%;animation:grow .8s cubic-bezier(.2,.8,.2,1) both}
.fade{animation:fade .7s ease-out both}
@keyframes grow{from{transform:scaleY(0)}to{transform:scaleY(1)}}
@keyframes fade{from{opacity:0}to{opacity:1}}

@media (prefers-reduced-motion:reduce){*{animation:none!important}}
</style>
<rect x=".5" y=".5" width="407" height="211" rx="10" fill="#ffffff" stroke="#d1d9e0"/>
<text x="20" y="36" font-size="17" class="b">Field-sales CRM</text>
<text x="20" y="57" font-size="12" class="m">Private client project · diagnostics lab group</text>
<text x="20" y="82" font-size="13" class="s">Leads, accounts, territories, targets and approval</text>
<text x="20" y="100" font-size="13" class="s">workflows, with revenue synced from the lab's own</text>
<text x="20" y="118" font-size="13" class="s">systems and WhatsApp, email and push alerts.</text>
<text x="20" y="146" font-size="12" class="m">Next.js · TypeScript · MongoDB · TanStack Query · PWA</text>
<line x1="20" x2="388" y1="160" y2="160" stroke="#e6e8eb"/>
<path class="grow" style="animation-delay:0ms" d="M20 196V194Q20 192 22 192H25Q27 192 27 194V196Z" fill="#2a78d6"/>
<path class="grow" style="animation-delay:40ms" d="M29 196V195Q29 193 31 193H34Q36 193 36 195V196Z" fill="#2a78d6"/>
<path class="grow" style="animation-delay:80ms" d="M38 196V195Q38 193 40 193H43Q45 193 45 195V196Z" fill="#2a78d6"/>
<path class="grow" style="animation-delay:120ms" d="M47 196V190.4Q47 188.4 49 188.4H52Q54 188.4 54 190.4V196Z" fill="#2a78d6"/>
<path class="grow" style="animation-delay:160ms" d="M56 196V181.3Q56 179.3 58 179.3H61Q63 179.3 63 181.3V196Z" fill="#2a78d6"/>
<path class="grow" style="animation-delay:200ms" d="M65 196V180.9Q65 178.9 67 178.9H70Q72 178.9 72 180.9V196Z" fill="#2a78d6"/>
<path class="grow" style="animation-delay:240ms" d="M74 196V190.7Q74 188.7 76 188.7H79Q81 188.7 81 190.7V196Z" fill="#2a78d6"/>
<path class="grow" style="animation-delay:280ms" d="M83 196V185.2Q83 183.2 85 183.2H88Q90 183.2 90 185.2V196Z" fill="#2a78d6"/>
<path class="grow" style="animation-delay:320ms" d="M92 196V189.8Q92 187.8 94 187.8H97Q99 187.8 99 189.8V196Z" fill="#2a78d6"/>
<path class="grow" style="animation-delay:360ms" d="M101 196V187.2Q101 185.2 103 185.2H106Q108 185.2 108 187.2V196Z" fill="#2a78d6"/>
<path class="grow" style="animation-delay:400ms" d="M110 196V174Q110 172 112 172H115Q117 172 117 174V196Z" fill="#2a78d6"/>
<path class="grow" style="animation-delay:440ms" d="M119 196V181.6Q119 179.6 121 179.6H124Q126 179.6 126 181.6V196Z" fill="#2a78d6"/>
<text x="388" y="182" font-size="13" class="b" text-anchor="end">462 commits in 30 days</text>
<text x="388" y="198" font-size="11" class="m" text-anchor="end">Last commit 9 Oct 2026</text>
</svg>
