<svg xmlns="http://www.w3.org/2000/svg" width="408" height="212" viewBox="0 0 408 212" role="img" aria-label="Field-sales CRM: 459 commits in 30 days">
<style>
text{font-family:-apple-system, BlinkMacSystemFont, 'Segoe UI', 'Noto Sans', Helvetica, Arial, sans-serif;fill:#1f2328}
.s{fill:#59636e}.m{fill:#6e7781}.b{font-weight:600}
.grow{transform-box:fill-box;transform-origin:50% 100%;animation:grow .8s cubic-bezier(.2,.8,.2,1) both}
.fade{animation:fade .7s ease-out both}
@keyframes grow{from{transform:scaleY(0)}to{transform:scaleY(1)}}
@keyframes fade{from{opacity:0}to{opacity:1}}

@media (prefers-reduced-motion:reduce){*{animation:none!important}}
</style>
<rect x=".5" y=".5" width="407" height="211" rx="10" fill="#ffffff" stroke="#d1d9e0"/>
<text x="20" y="36" font-size="17" class="b">Field-sales CRM</text>
<text x="20" y="57" font-size="12" class="m">Private client project · diagnostics lab group</text>
<text x="20" y="82" font-size="13" class="s">Leads, accounts, territories, targets and approval</text>
<text x="20" y="100" font-size="13" class="s">workflows, with revenue synced from the lab's own</text>
<text x="20" y="118" font-size="13" class="s">systems and WhatsApp, email and push alerts.</text>
<text x="20" y="146" font-size="12" class="m">Next.js · TypeScript · MongoDB · TanStack Query · PWA</text>
<line x1="20" x2="388" y1="160" y2="160" stroke="#e6e8eb"/>
<path class="grow" style="animation-delay:0ms" d="M20 196V195Q20 193 22 193H25Q27 193 27 195V196Z" fill="#2a78d6"/>
<path class="grow" style="animation-delay:40ms" d="M29 196V194.7Q29 192.7 31 192.7H34Q36 192.7 36 194.7V196Z" fill="#2a78d6"/>
<path class="grow" style="animation-delay:80ms" d="M38 196V195Q38 193 40 193H43Q45 193 45 195V196Z" fill="#2a78d6"/>
<path class="grow" style="animation-delay:120ms" d="M47 196V192.3Q47 190.3 49 190.3H52Q54 190.3 54 192.3V196Z" fill="#2a78d6"/>
<path class="grow" style="animation-delay:160ms" d="M56 196V185.8Q56 183.8 58 183.8H61Q63 183.8 63 185.8V196Z" fill="#2a78d6"/>
<path class="grow" style="animation-delay:200ms" d="M65 196V187.4Q65 185.4 67 185.4H70Q72 185.4 72 187.4V196Z" fill="#2a78d6"/>
<path class="grow" style="animation-delay:240ms" d="M74 196V185.9Q74 183.9 76 183.9H79Q81 183.9 81 185.9V196Z" fill="#2a78d6"/>
<path class="grow" style="animation-delay:280ms" d="M83 196V186.6Q83 184.6 85 184.6H88Q90 184.6 90 186.6V196Z" fill="#2a78d6"/>
<path class="grow" style="animation-delay:320ms" d="M92 196V188.8Q92 186.8 94 186.8H97Q99 186.8 99 188.8V196Z" fill="#2a78d6"/>
<path class="grow" style="animation-delay:360ms" d="M101 196V191.5Q101 189.5 103 189.5H106Q108 189.5 108 191.5V196Z" fill="#2a78d6"/>
<path class="grow" style="animation-delay:400ms" d="M110 196V186.3Q110 184.3 112 184.3H115Q117 184.3 117 186.3V196Z" fill="#2a78d6"/>
<path class="grow" style="animation-delay:440ms" d="M119 196V174Q119 172 121 172H124Q126 172 126 174V196Z" fill="#2a78d6"/>
<text x="388" y="182" font-size="13" class="b" text-anchor="end">459 commits in 30 days</text>
<text x="388" y="198" font-size="11" class="m" text-anchor="end">Last commit 6 Oct 2026</text>
</svg>
